# Alias OBJ Model File
# Exported from SketchUp, (c) 2000-2012 Trimble Navigation Limited
# File units = meters

mtllib Decorative wall.mtl

g Mesh1 Component_199_1 Model

usemtl Trapp
v 2.176 1.73259e-14 -0.022
vt -0.012 0
vn 0 0 -1
v 2.128 1.73259e-14 -0.022
vt 0 0
v 2.128 2.4 -0.022
vt 0 0.521484
v 2.176 2.4 -0.022
vt -0.012 0.521484
f 1/1/1 2/2/1 3/3/1 4/4/1 

vt 0 0.00478027
vn 0 -1 -0
vt -0.012 0.00478027
v 2.176 1.73259e-14 -3.2486e-15
v 2.128 1.73259e-14 -3.2486e-15
f 2/5/2 1/6/2 5/1/2 6/2/2 

vn 1 0 -0
vt 0.0055 0
vt 0.0055 0.521484
v 2.176 2.4 -3.2486e-15
f 5/2/3 1/7/3 4/8/3 7/3/3 

vt 0.012 0.00478027
vn 0 1 -0
v 2.128 2.4 -3.2486e-15
vt 0.012 0
f 4/9/4 3/5/4 8/2/4 7/10/4 

vt -0.0055 0
vn -1 0 -0
vt -0.0055 0.521484
f 2/11/5 6/2/5 8/3/5 3/12/5 

vn 0 0 1
vt 0.012 0.521484
f 6/2/6 5/10/6 7/13/6 8/3/6 

g Mesh2 Component_199_2 Model

v 3.13 1.73259e-14 -0.022
v 3.082 1.73259e-14 -0.022
v 3.082 2.4 -0.022
v 3.13 2.4 -0.022
f 9/1/1 10/2/1 11/3/1 12/4/1 

v 3.13 1.73259e-14 -2.70717e-15
v 3.082 1.73259e-14 -2.70717e-15
f 10/5/2 9/6/2 13/1/2 14/2/2 

v 3.13 2.4 -2.70717e-15
f 13/2/3 9/7/3 12/8/3 15/3/3 

v 3.082 2.4 -2.70717e-15
f 12/9/4 11/5/4 16/2/4 15/10/4 

f 10/11/5 14/2/5 16/3/5 11/12/5 

f 14/2/6 13/10/6 15/13/6 16/3/6 

g Mesh3 Component_199_3 Model

v 0.476 1.73259e-14 -0.022
v 0.428 1.73259e-14 -0.022
v 0.428 2.4 -0.022
v 0.476 2.4 -0.022
f 17/1/1 18/2/1 19/3/1 20/4/1 

v 0.476 1.73259e-14 -1.26334e-15
v 0.428 1.73259e-14 -1.26334e-15
f 18/5/2 17/6/2 21/1/2 22/2/2 

v 0.476 2.4 -1.26334e-15
f 21/2/3 17/7/3 20/8/3 23/3/3 

v 0.428 2.4 -1.26334e-15
f 20/9/4 19/5/4 24/2/4 23/10/4 

f 18/11/5 22/2/5 24/3/5 19/12/5 

f 22/2/6 21/10/6 23/13/6 24/3/6 

g Mesh4 Component_199_4 Model

v 1.496 1.73259e-14 -0.022
v 1.448 1.73259e-14 -0.022
v 1.448 2.4 -0.022
v 1.496 2.4 -0.022
f 25/1/1 26/2/1 27/3/1 28/4/1 

v 1.496 1.73259e-14 -3.60956e-15
v 1.448 1.73259e-14 -3.60956e-15
f 26/5/2 25/6/2 29/1/2 30/2/2 

v 1.496 2.4 -3.60956e-15
f 29/2/3 25/7/3 28/8/3 31/3/3 

v 1.448 2.4 -3.60956e-15
f 28/9/4 27/5/4 32/2/4 31/10/4 

f 26/11/5 30/2/5 32/3/5 27/12/5 

f 30/2/6 29/10/6 31/13/6 32/3/6 

g Mesh5 Component_199_5 Model

v 1.02 1.73259e-14 -0.022
v 0.972 1.73259e-14 -0.022
v 0.972 2.4 -0.022
v 1.02 2.4 -0.022
f 33/1/1 34/2/1 35/3/1 36/4/1 

v 1.02 1.73259e-14 -3.79003e-15
v 0.972 1.73259e-14 -3.79003e-15
f 34/5/2 33/6/2 37/1/2 38/2/2 

v 1.02 2.4 -3.79003e-15
f 37/2/3 33/7/3 36/8/3 39/3/3 

v 0.972 2.4 -3.79003e-15
f 36/9/4 35/5/4 40/2/4 39/10/4 

f 34/11/5 38/2/5 40/3/5 35/12/5 

f 38/2/6 37/10/6 39/13/6 40/3/6 

g Mesh6 Component_199_6 Model

v 0.34 1.73259e-14 -0.022
v 0.292 1.73259e-14 -0.022
v 0.292 2.4 -0.022
v 0.34 2.4 -0.022
f 41/1/1 42/2/1 43/3/1 44/4/1 

v 0.34 1.73259e-14 -1.26334e-15
v 0.292 1.73259e-14 -1.26334e-15
f 42/5/2 41/6/2 45/1/2 46/2/2 

v 0.34 2.4 -1.26334e-15
f 45/2/3 41/7/3 44/8/3 47/3/3 

v 0.292 2.4 -1.26334e-15
f 44/9/4 43/5/4 48/2/4 47/10/4 

f 42/11/5 46/2/5 48/3/5 43/12/5 

f 46/2/6 45/10/6 47/13/6 48/3/6 

g Mesh7 Component_199_7 Model

v 1.904 1.73259e-14 -0.022
v 1.856 1.73259e-14 -0.022
v 1.856 2.4 -0.022
v 1.904 2.4 -0.022
f 49/1/1 50/2/1 51/3/1 52/4/1 

v 1.904 1.73259e-14 -9.20437e-15
v 1.856 1.73259e-14 -9.20437e-15
f 50/5/2 49/6/2 53/1/2 54/2/2 

v 1.904 2.4 -9.20437e-15
f 53/2/3 49/7/3 52/8/3 55/3/3 

v 1.856 2.4 -9.20437e-15
f 52/9/4 51/5/4 56/2/4 55/10/4 

f 50/11/5 54/2/5 56/3/5 51/12/5 

f 54/2/6 53/10/6 55/13/6 56/3/6 

g Mesh8 Component_199_8 Model

v 1.836 1.73259e-14 -0.022
v 1.788 1.73259e-14 -0.022
v 1.788 2.4 -0.022
v 1.836 2.4 -0.022
f 57/1/1 58/2/1 59/3/1 60/4/1 

v 1.836 1.73259e-14 -9.20437e-15
v 1.788 1.73259e-14 -9.20437e-15
f 58/5/2 57/6/2 61/1/2 62/2/2 

v 1.836 2.4 -9.20437e-15
f 61/2/3 57/7/3 60/8/3 63/3/3 

v 1.788 2.4 -9.20437e-15
f 60/9/4 59/5/4 64/2/4 63/10/4 

f 58/11/5 62/2/5 64/3/5 59/12/5 

f 62/2/6 61/10/6 63/13/6 64/3/6 

g Mesh9 Component_199_9 Model

v 2.516 1.73259e-14 -0.022
v 2.468 1.73259e-14 -0.022
v 2.468 2.4 -0.022
v 2.516 2.4 -0.022
f 65/1/1 66/2/1 67/3/1 68/4/1 

v 2.516 1.73259e-14 -3.06812e-15
v 2.468 1.73259e-14 -3.06812e-15
f 66/5/2 65/6/2 69/1/2 70/2/2 

v 2.516 2.4 -3.06812e-15
f 69/2/3 65/7/3 68/8/3 71/3/3 

v 2.468 2.4 -3.06812e-15
f 68/9/4 67/5/4 72/2/4 71/10/4 

f 66/11/5 70/2/5 72/3/5 67/12/5 

f 70/2/6 69/10/6 71/13/6 72/3/6 

g Mesh10 Component_199_10 Model

v 1.768 1.73259e-14 -0.022
v 1.72 1.73259e-14 -0.022
v 1.72 2.4 -0.022
v 1.768 2.4 -0.022
f 73/1/1 74/2/1 75/3/1 76/4/1 

v 1.768 1.73259e-14 -9.20437e-15
v 1.72 1.73259e-14 -9.20437e-15
f 74/5/2 73/6/2 77/1/2 78/2/2 

v 1.768 2.4 -9.20437e-15
f 77/2/3 73/7/3 76/8/3 79/3/3 

v 1.72 2.4 -9.20437e-15
f 76/9/4 75/5/4 80/2/4 79/10/4 

f 74/11/5 78/2/5 80/3/5 75/12/5 

f 78/2/6 77/10/6 79/13/6 80/3/6 

g Mesh11 Component_199_11 Model

v 2.38 1.73259e-14 -0.022
v 2.332 1.73259e-14 -0.022
v 2.332 2.4 -0.022
v 2.38 2.4 -0.022
f 81/1/1 82/2/1 83/3/1 84/4/1 

v 2.38 1.73259e-14 -3.06812e-15
v 2.332 1.73259e-14 -3.06812e-15
f 82/5/2 81/6/2 85/1/2 86/2/2 

v 2.38 2.4 -3.06812e-15
f 85/2/3 81/7/3 84/8/3 87/3/3 

v 2.332 2.4 -3.06812e-15
f 84/9/4 83/5/4 88/2/4 87/10/4 

f 82/11/5 86/2/5 88/3/5 83/12/5 

f 86/2/6 85/10/6 87/13/6 88/3/6 

g Mesh12 Component_199_12 Model

v 0.272 1.73259e-14 -0.022
v 0.224 1.73259e-14 -0.022
v 0.224 2.4 -0.022
v 0.272 2.4 -0.022
f 89/1/1 90/2/1 91/3/1 92/4/1 

v 0.272 1.73259e-14 -1.26334e-15
v 0.224 1.73259e-14 -1.26334e-15
f 90/5/2 89/6/2 93/1/2 94/2/2 

v 0.272 2.4 -1.26334e-15
f 93/2/3 89/7/3 92/8/3 95/3/3 

v 0.224 2.4 -1.26334e-15
f 92/9/4 91/5/4 96/2/4 95/10/4 

f 90/11/5 94/2/5 96/3/5 91/12/5 

f 94/2/6 93/10/6 95/13/6 96/3/6 

g Mesh13 Component_199_13 Model

v 2.652 1.73259e-14 -0.022
v 2.604 1.73259e-14 -0.022
v 2.604 2.4 -0.022
v 2.652 2.4 -0.022
f 97/1/1 98/2/1 99/3/1 100/4/1 

v 2.652 1.73259e-14 -3.06812e-15
v 2.604 1.73259e-14 -3.06812e-15
f 98/5/2 97/6/2 101/1/2 102/2/2 

v 2.652 2.4 -3.06812e-15
f 101/2/3 97/7/3 100/8/3 103/3/3 

v 2.604 2.4 -3.06812e-15
f 100/9/4 99/5/4 104/2/4 103/10/4 

f 98/11/5 102/2/5 104/3/5 99/12/5 

f 102/2/6 101/10/6 103/13/6 104/3/6 

g Mesh14 Component_199_14 Model

v 0.952 1.73259e-14 -0.022
v 0.904 1.73259e-14 -0.022
v 0.904 2.4 -0.022
v 0.952 2.4 -0.022
f 105/1/1 106/2/1 107/3/1 108/4/1 

v 0.952 1.73259e-14 -3.79003e-15
v 0.904 1.73259e-14 -3.79003e-15
f 106/5/2 105/6/2 109/1/2 110/2/2 

v 0.952 2.4 -3.79003e-15
f 109/2/3 105/7/3 108/8/3 111/3/3 

v 0.904 2.4 -3.79003e-15
f 108/9/4 107/5/4 112/2/4 111/10/4 

f 106/11/5 110/2/5 112/3/5 107/12/5 

f 110/2/6 109/10/6 111/13/6 112/3/6 

g Mesh15 Component_199_15 Model

v 1.564 1.73259e-14 -0.022
v 1.516 1.73259e-14 -0.022
v 1.516 2.4 -0.022
v 1.564 2.4 -0.022
f 113/1/1 114/2/1 115/3/1 116/4/1 

v 1.564 1.73259e-14 -3.60956e-15
v 1.516 1.73259e-14 -3.60956e-15
f 114/5/2 113/6/2 117/1/2 118/2/2 

v 1.564 2.4 -3.60956e-15
f 117/2/3 113/7/3 116/8/3 119/3/3 

v 1.516 2.4 -3.60956e-15
f 116/9/4 115/5/4 120/2/4 119/10/4 

f 114/11/5 118/2/5 120/3/5 115/12/5 

f 118/2/6 117/10/6 119/13/6 120/3/6 

g Mesh16 Component_199_16 Model

v 2.04 1.73259e-14 -0.022
v 1.992 1.73259e-14 -0.022
v 1.992 2.4 -0.022
v 2.04 2.4 -0.022
f 121/1/1 122/2/1 123/3/1 124/4/1 

v 2.04 1.73259e-14 -3.2486e-15
v 1.992 1.73259e-14 -3.2486e-15
f 122/5/2 121/6/2 125/1/2 126/2/2 

v 2.04 2.4 -3.2486e-15
f 125/2/3 121/7/3 124/8/3 127/3/3 

v 1.992 2.4 -3.2486e-15
f 124/9/4 123/5/4 128/2/4 127/10/4 

f 122/11/5 126/2/5 128/3/5 123/12/5 

f 126/2/6 125/10/6 127/13/6 128/3/6 

g Mesh17 Component_199_17 Model

v 0.068 1.73259e-14 -0.022
v 0.02 1.73259e-14 -0.022
v 0.02 2.4 -0.022
v 0.068 2.4 -0.022
f 129/1/1 130/2/1 131/3/1 132/4/1 

v 0.068 1.73259e-14 -1.44382e-15
v 0.02 1.73259e-14 -1.44382e-15
f 130/5/2 129/6/2 133/1/2 134/2/2 

v 0.068 2.4 -1.44382e-15
f 133/2/3 129/7/3 132/8/3 135/3/3 

v 0.02 2.4 -1.44382e-15
f 132/9/4 131/5/4 136/2/4 135/10/4 

f 130/11/5 134/2/5 136/3/5 131/12/5 

f 134/2/6 133/10/6 135/13/6 136/3/6 

g Mesh18 Component_199_18 Model

v 1.292 1.73259e-14 -0.022
v 1.244 1.73259e-14 -0.022
v 1.244 2.4 -0.022
v 1.292 2.4 -0.022
f 137/1/1 138/2/1 139/3/1 140/4/1 

v 1.292 1.73259e-14 -3.79003e-15
v 1.244 1.73259e-14 -3.79003e-15
f 138/5/2 137/6/2 141/1/2 142/2/2 

v 1.292 2.4 -3.79003e-15
f 141/2/3 137/7/3 140/8/3 143/3/3 

v 1.244 2.4 -3.79003e-15
f 140/9/4 139/5/4 144/2/4 143/10/4 

f 138/11/5 142/2/5 144/3/5 139/12/5 

f 142/2/6 141/10/6 143/13/6 144/3/6 

g Mesh19 Component_199_19 Model

v 2.448 1.73259e-14 -0.022
v 2.4 1.73259e-14 -0.022
v 2.4 2.4 -0.022
v 2.448 2.4 -0.022
f 145/1/1 146/2/1 147/3/1 148/4/1 

v 2.448 1.73259e-14 -3.06812e-15
v 2.4 1.73259e-14 -3.06812e-15
f 146/5/2 145/6/2 149/1/2 150/2/2 

v 2.448 2.4 -3.06812e-15
f 149/2/3 145/7/3 148/8/3 151/3/3 

v 2.4 2.4 -3.06812e-15
f 148/9/4 147/5/4 152/2/4 151/10/4 

f 146/11/5 150/2/5 152/3/5 147/12/5 

f 150/2/6 149/10/6 151/13/6 152/3/6 

g Mesh20 Component_199_20 Model

v 3.2 1.73259e-14 -0.022
v 3.152 1.73259e-14 -0.022
v 3.152 2.4 -0.022
v 3.2 2.4 -0.022
f 153/1/1 154/2/1 155/3/1 156/4/1 

v 3.2 1.73259e-14 -2.70717e-15
v 3.152 1.73259e-14 -2.70717e-15
f 154/5/2 153/6/2 157/1/2 158/2/2 

v 3.2 2.4 -2.70717e-15
f 157/2/3 153/7/3 156/8/3 159/3/3 

v 3.152 2.4 -2.70717e-15
f 156/9/4 155/5/4 160/2/4 159/10/4 

f 154/11/5 158/2/5 160/3/5 155/12/5 

f 158/2/6 157/10/6 159/13/6 160/3/6 

g Mesh21 Component_199_21 Model

v 1.972 1.73259e-14 -0.022
v 1.924 1.73259e-14 -0.022
v 1.924 2.4 -0.022
v 1.972 2.4 -0.022
f 161/1/1 162/2/1 163/3/1 164/4/1 

v 1.972 1.73259e-14 -9.20437e-15
v 1.924 1.73259e-14 -9.20437e-15
f 162/5/2 161/6/2 165/1/2 166/2/2 

v 1.972 2.4 -9.20437e-15
f 165/2/3 161/7/3 164/8/3 167/3/3 

v 1.924 2.4 -9.20437e-15
f 164/9/4 163/5/4 168/2/4 167/10/4 

f 162/11/5 166/2/5 168/3/5 163/12/5 

f 166/2/6 165/10/6 167/13/6 168/3/6 

g Mesh22 Component_199_22 Model

v 1.428 1.73259e-14 -0.022
v 1.38 1.73259e-14 -0.022
v 1.38 2.4 -0.022
v 1.428 2.4 -0.022
f 169/1/1 170/2/1 171/3/1 172/4/1 

v 1.428 1.73259e-14 -3.60956e-15
v 1.38 1.73259e-14 -3.60956e-15
f 170/5/2 169/6/2 173/1/2 174/2/2 

v 1.428 2.4 -3.60956e-15
f 173/2/3 169/7/3 172/8/3 175/3/3 

v 1.38 2.4 -3.60956e-15
f 172/9/4 171/5/4 176/2/4 175/10/4 

f 170/11/5 174/2/5 176/3/5 171/12/5 

f 174/2/6 173/10/6 175/13/6 176/3/6 

g Mesh23 Component_199_23 Model

v 2.108 1.73259e-14 -0.022
v 2.06 1.73259e-14 -0.022
v 2.06 2.4 -0.022
v 2.108 2.4 -0.022
f 177/1/1 178/2/1 179/3/1 180/4/1 

v 2.108 1.73259e-14 -3.2486e-15
v 2.06 1.73259e-14 -3.2486e-15
f 178/5/2 177/6/2 181/1/2 182/2/2 

v 2.108 2.4 -3.2486e-15
f 181/2/3 177/7/3 180/8/3 183/3/3 

v 2.06 2.4 -3.2486e-15
f 180/9/4 179/5/4 184/2/4 183/10/4 

f 178/11/5 182/2/5 184/3/5 179/12/5 

f 182/2/6 181/10/6 183/13/6 184/3/6 

g Mesh24 Component_199_24 Model

v 0.68 1.73259e-14 -0.022
v 0.632 1.73259e-14 -0.022
v 0.632 2.4 -0.022
v 0.68 2.4 -0.022
f 185/1/1 186/2/1 187/3/1 188/4/1 

v 0.68 1.73259e-14 -1.08287e-15
v 0.632 1.73259e-14 -1.08287e-15
f 186/5/2 185/6/2 189/1/2 190/2/2 

v 0.68 2.4 -1.08287e-15
f 189/2/3 185/7/3 188/8/3 191/3/3 

v 0.632 2.4 -1.08287e-15
f 188/9/4 187/5/4 192/2/4 191/10/4 

f 186/11/5 190/2/5 192/3/5 187/12/5 

f 190/2/6 189/10/6 191/13/6 192/3/6 

g Mesh25 Component_199_25 Model

v 0.748 1.73259e-14 -0.022
v 0.7 1.73259e-14 -0.022
v 0.7 2.4 -0.022
v 0.748 2.4 -0.022
f 193/1/1 194/2/1 195/3/1 196/4/1 

v 0.748 1.73259e-14 -1.08287e-15
v 0.7 1.73259e-14 -1.08287e-15
f 194/5/2 193/6/2 197/1/2 198/2/2 

v 0.748 2.4 -1.08287e-15
f 197/2/3 193/7/3 196/8/3 199/3/3 

v 0.7 2.4 -1.08287e-15
f 196/9/4 195/5/4 200/2/4 199/10/4 

f 194/11/5 198/2/5 200/3/5 195/12/5 

f 198/2/6 197/10/6 199/13/6 200/3/6 

g Mesh26 Component_199_26 Model

v 2.72 1.73259e-14 -0.022
v 2.672 1.73259e-14 -0.022
v 2.672 2.4 -0.022
v 2.72 2.4 -0.022
f 201/1/1 202/2/1 203/3/1 204/4/1 

v 2.72 1.73259e-14 -3.06812e-15
v 2.672 1.73259e-14 -3.06812e-15
f 202/5/2 201/6/2 205/1/2 206/2/2 

v 2.72 2.4 -3.06812e-15
f 205/2/3 201/7/3 204/8/3 207/3/3 

v 2.672 2.4 -3.06812e-15
f 204/9/4 203/5/4 208/2/4 207/10/4 

f 202/11/5 206/2/5 208/3/5 203/12/5 

f 206/2/6 205/10/6 207/13/6 208/3/6 

g Mesh27 Component_199_27 Model

v 1.632 1.73259e-14 -0.022
v 1.584 1.73259e-14 -0.022
v 1.584 2.4 -0.022
v 1.632 2.4 -0.022
f 209/1/1 210/2/1 211/3/1 212/4/1 

v 1.632 1.73259e-14 -3.60956e-15
v 1.584 1.73259e-14 -3.60956e-15
f 210/5/2 209/6/2 213/1/2 214/2/2 

v 1.632 2.4 -3.60956e-15
f 213/2/3 209/7/3 212/8/3 215/3/3 

v 1.584 2.4 -3.60956e-15
f 212/9/4 211/5/4 216/2/4 215/10/4 

f 210/11/5 214/2/5 216/3/5 211/12/5 

f 214/2/6 213/10/6 215/13/6 216/3/6 

g Mesh28 Component_199_28 Model

v 0.884 1.73259e-14 -0.022
v 0.836 1.73259e-14 -0.022
v 0.836 2.4 -0.022
v 0.884 2.4 -0.022
f 217/1/1 218/2/1 219/3/1 220/4/1 

v 0.884 1.73259e-14 -3.97051e-15
v 0.836 1.73259e-14 -3.97051e-15
f 218/5/2 217/6/2 221/1/2 222/2/2 

v 0.884 2.4 -3.97051e-15
f 221/2/3 217/7/3 220/8/3 223/3/3 

v 0.836 2.4 -3.97051e-15
f 220/9/4 219/5/4 224/2/4 223/10/4 

f 218/11/5 222/2/5 224/3/5 219/12/5 

f 222/2/6 221/10/6 223/13/6 224/3/6 

g Mesh29 Component_199_29 Model

v 0.612 1.73259e-14 -0.022
v 0.564 1.73259e-14 -0.022
v 0.564 2.4 -0.022
v 0.612 2.4 -0.022
f 225/1/1 226/2/1 227/3/1 228/4/1 

v 0.612 1.73259e-14 -1.08287e-15
v 0.564 1.73259e-14 -1.08287e-15
f 226/5/2 225/6/2 229/1/2 230/2/2 

v 0.612 2.4 -1.08287e-15
f 229/2/3 225/7/3 228/8/3 231/3/3 

v 0.564 2.4 -1.08287e-15
f 228/9/4 227/5/4 232/2/4 231/10/4 

f 226/11/5 230/2/5 232/3/5 227/12/5 

f 230/2/6 229/10/6 231/13/6 232/3/6 

g Mesh30 Component_199_30 Model

v 2.312 1.73259e-14 -0.022
v 2.264 1.73259e-14 -0.022
v 2.264 2.4 -0.022
v 2.312 2.4 -0.022
f 233/1/1 234/2/1 235/3/1 236/4/1 

v 2.312 1.73259e-14 -3.2486e-15
v 2.264 1.73259e-14 -3.2486e-15
f 234/5/2 233/6/2 237/1/2 238/2/2 

v 2.312 2.4 -3.2486e-15
f 237/2/3 233/7/3 236/8/3 239/3/3 

v 2.264 2.4 -3.2486e-15
f 236/9/4 235/5/4 240/2/4 239/10/4 

f 234/11/5 238/2/5 240/3/5 235/12/5 

f 238/2/6 237/10/6 239/13/6 240/3/6 

g Mesh31 Component_199_31 Model

v 2.584 1.73259e-14 -0.022
v 2.536 1.73259e-14 -0.022
v 2.536 2.4 -0.022
v 2.584 2.4 -0.022
f 241/1/1 242/2/1 243/3/1 244/4/1 

v 2.584 1.73259e-14 -3.06812e-15
v 2.536 1.73259e-14 -3.06812e-15
f 242/5/2 241/6/2 245/1/2 246/2/2 

v 2.584 2.4 -3.06812e-15
f 245/2/3 241/7/3 244/8/3 247/3/3 

v 2.536 2.4 -3.06812e-15
f 244/9/4 243/5/4 248/2/4 247/10/4 

f 242/11/5 246/2/5 248/3/5 243/12/5 

f 246/2/6 245/10/6 247/13/6 248/3/6 

g Mesh32 Component_199_32 Model

v 2.992 1.73259e-14 -0.022
v 2.944 1.73259e-14 -0.022
v 2.944 2.4 -0.022
v 2.992 2.4 -0.022
f 249/1/1 250/2/1 251/3/1 252/4/1 

v 2.992 1.73259e-14 -2.88765e-15
v 2.944 1.73259e-14 -2.88765e-15
f 250/5/2 249/6/2 253/1/2 254/2/2 

v 2.992 2.4 -2.88765e-15
f 253/2/3 249/7/3 252/8/3 255/3/3 

v 2.944 2.4 -2.88765e-15
f 252/9/4 251/5/4 256/2/4 255/10/4 

f 250/11/5 254/2/5 256/3/5 251/12/5 

f 254/2/6 253/10/6 255/13/6 256/3/6 

g Mesh33 Component_199_33 Model

v 0.136 1.73259e-14 -0.022
v 0.088 1.73259e-14 -0.022
v 0.088 2.4 -0.022
v 0.136 2.4 -0.022
f 257/1/1 258/2/1 259/3/1 260/4/1 

v 0.136 1.73259e-14 -1.44382e-15
v 0.088 1.73259e-14 -1.44382e-15
f 258/5/2 257/6/2 261/1/2 262/2/2 

v 0.136 2.4 -1.44382e-15
f 261/2/3 257/7/3 260/8/3 263/3/3 

v 0.088 2.4 -1.44382e-15
f 260/9/4 259/5/4 264/2/4 263/10/4 

f 258/11/5 262/2/5 264/3/5 259/12/5 

f 262/2/6 261/10/6 263/13/6 264/3/6 

g Mesh34 Component_199_34 Model

v 3.061 1.73259e-14 -0.022
v 3.013 1.73259e-14 -0.022
v 3.013 2.4 -0.022
v 3.061 2.4 -0.022
f 265/1/1 266/2/1 267/3/1 268/4/1 

v 3.061 1.73259e-14 -2.88765e-15
v 3.013 1.73259e-14 -2.88765e-15
f 266/5/2 265/6/2 269/1/2 270/2/2 

v 3.061 2.4 -2.88765e-15
f 269/2/3 265/7/3 268/8/3 271/3/3 

v 3.013 2.4 -2.88765e-15
f 268/9/4 267/5/4 272/2/4 271/10/4 

f 266/11/5 270/2/5 272/3/5 267/12/5 

f 270/2/6 269/10/6 271/13/6 272/3/6 

g Mesh35 Component_199_35 Model

v 0.544 1.73259e-14 -0.022
v 0.496 1.73259e-14 -0.022
v 0.496 2.4 -0.022
v 0.544 2.4 -0.022
f 273/1/1 274/2/1 275/3/1 276/4/1 

v 0.544 1.73259e-14 -1.26334e-15
v 0.496 1.73259e-14 -1.26334e-15
f 274/5/2 273/6/2 277/1/2 278/2/2 

v 0.544 2.4 -1.26334e-15
f 277/2/3 273/7/3 276/8/3 279/3/3 

v 0.496 2.4 -1.26334e-15
f 276/9/4 275/5/4 280/2/4 279/10/4 

f 274/11/5 278/2/5 280/3/5 275/12/5 

f 278/2/6 277/10/6 279/13/6 280/3/6 

g Mesh36 Component_199_36 Model

v 0.816 1.73259e-14 -0.022
v 0.768 1.73259e-14 -0.022
v 0.768 2.4 -0.022
v 0.816 2.4 -0.022
f 281/1/1 282/2/1 283/3/1 284/4/1 

v 0.816 1.73259e-14 -3.97051e-15
v 0.768 1.73259e-14 -3.97051e-15
f 282/5/2 281/6/2 285/1/2 286/2/2 

v 0.816 2.4 -3.97051e-15
f 285/2/3 281/7/3 284/8/3 287/3/3 

v 0.768 2.4 -3.97051e-15
f 284/9/4 283/5/4 288/2/4 287/10/4 

f 282/11/5 286/2/5 288/3/5 283/12/5 

f 286/2/6 285/10/6 287/13/6 288/3/6 

g Mesh37 Component_199_37 Model

v 1.224 1.73259e-14 -0.022
v 1.176 1.73259e-14 -0.022
v 1.176 2.4 -0.022
v 1.224 2.4 -0.022
f 289/1/1 290/2/1 291/3/1 292/4/1 

v 1.224 1.73259e-14 -3.79003e-15
v 1.176 1.73259e-14 -3.79003e-15
f 290/5/2 289/6/2 293/1/2 294/2/2 

v 1.224 2.4 -3.79003e-15
f 293/2/3 289/7/3 292/8/3 295/3/3 

v 1.176 2.4 -3.79003e-15
f 292/9/4 291/5/4 296/2/4 295/10/4 

f 290/11/5 294/2/5 296/3/5 291/12/5 

f 294/2/6 293/10/6 295/13/6 296/3/6 

g Mesh38 Component_199_38 Model

v 2.788 1.73259e-14 -0.022
v 2.74 1.73259e-14 -0.022
v 2.74 2.4 -0.022
v 2.788 2.4 -0.022
f 297/1/1 298/2/1 299/3/1 300/4/1 

v 2.788 1.73259e-14 -2.88765e-15
v 2.74 1.73259e-14 -2.88765e-15
f 298/5/2 297/6/2 301/1/2 302/2/2 

v 2.788 2.4 -2.88765e-15
f 301/2/3 297/7/3 300/8/3 303/3/3 

v 2.74 2.4 -2.88765e-15
f 300/9/4 299/5/4 304/2/4 303/10/4 

f 298/11/5 302/2/5 304/3/5 299/12/5 

f 302/2/6 301/10/6 303/13/6 304/3/6 

g Mesh39 Component_199_39 Model

v 1.088 1.73259e-14 -0.022
v 1.04 1.73259e-14 -0.022
v 1.04 2.4 -0.022
v 1.088 2.4 -0.022
f 305/1/1 306/2/1 307/3/1 308/4/1 

v 1.088 1.73259e-14 -3.79003e-15
v 1.04 1.73259e-14 -3.79003e-15
f 306/5/2 305/6/2 309/1/2 310/2/2 

v 1.088 2.4 -3.79003e-15
f 309/2/3 305/7/3 308/8/3 311/3/3 

v 1.04 2.4 -3.79003e-15
f 308/9/4 307/5/4 312/2/4 311/10/4 

f 306/11/5 310/2/5 312/3/5 307/12/5 

f 310/2/6 309/10/6 311/13/6 312/3/6 

g Mesh40 Component_199_40 Model

v 2.924 1.73259e-14 -0.022
v 2.876 1.73259e-14 -0.022
v 2.876 2.4 -0.022
v 2.924 2.4 -0.022
f 313/1/1 314/2/1 315/3/1 316/4/1 

v 2.924 1.73259e-14 -2.88765e-15
v 2.876 1.73259e-14 -2.88765e-15
f 314/5/2 313/6/2 317/1/2 318/2/2 

v 2.924 2.4 -2.88765e-15
f 317/2/3 313/7/3 316/8/3 319/3/3 

v 2.876 2.4 -2.88765e-15
f 316/9/4 315/5/4 320/2/4 319/10/4 

f 314/11/5 318/2/5 320/3/5 315/12/5 

f 318/2/6 317/10/6 319/13/6 320/3/6 

g Mesh41 Component_199_41 Model

v 2.244 1.73259e-14 -0.022
v 2.196 1.73259e-14 -0.022
v 2.196 2.4 -0.022
v 2.244 2.4 -0.022
f 321/1/1 322/2/1 323/3/1 324/4/1 

v 2.244 1.73259e-14 -3.2486e-15
v 2.196 1.73259e-14 -3.2486e-15
f 322/5/2 321/6/2 325/1/2 326/2/2 

v 2.244 2.4 -3.2486e-15
f 325/2/3 321/7/3 324/8/3 327/3/3 

v 2.196 2.4 -3.2486e-15
f 324/9/4 323/5/4 328/2/4 327/10/4 

f 322/11/5 326/2/5 328/3/5 323/12/5 

f 326/2/6 325/10/6 327/13/6 328/3/6 

g Mesh42 Component_142_1 Model

usemtl Dempet_Sort
v 3.2 0 -0.122
vt 1 0
v 3.2 2.4 -0.122
vt 1 30.0896
v 3.2 2.4 -0.022
vt 0 30.0896
v 3.2 0 -0.022
f 329/14/3 330/15/3 331/16/3 332/2/3 

v 0 0 -0.122
v 0 2.4 -0.122
vt -32 30.0896
vt -32 0
f 333/2/1 334/16/1 330/17/1 329/18/1 

vt -1 30.0896
vt -1 0
v 0 0 -0.022
v 0 2.4 -0.022
f 334/19/5 333/20/5 335/2/5 336/16/5 

vt 0 1.25373
vt -32 1.25373
f 335/2/2 333/21/2 329/22/2 332/18/2 

vt 32 0
vt 32 30.0896
f 336/16/6 335/2/6 332/23/6 331/24/6 

vt 32 1.25373
f 334/21/4 336/2/4 331/23/4 330/25/4 

g Mesh43 Component_199_42 Model

usemtl Trapp
v 1.36 1.73259e-14 -0.022
v 1.312 1.73259e-14 -0.022
v 1.312 2.4 -0.022
v 1.36 2.4 -0.022
f 337/1/1 338/2/1 339/3/1 340/4/1 

v 1.36 1.73259e-14 -3.60956e-15
v 1.312 1.73259e-14 -3.60956e-15
f 338/5/2 337/6/2 341/1/2 342/2/2 

v 1.36 2.4 -3.60956e-15
f 341/2/3 337/7/3 340/8/3 343/3/3 

v 1.312 2.4 -3.60956e-15
f 340/9/4 339/5/4 344/2/4 343/10/4 

f 338/11/5 342/2/5 344/3/5 339/12/5 

f 342/2/6 341/10/6 343/13/6 344/3/6 

g Mesh44 Component_199_43 Model

v 2.856 1.73259e-14 -0.022
v 2.808 1.73259e-14 -0.022
v 2.808 2.4 -0.022
v 2.856 2.4 -0.022
f 345/1/1 346/2/1 347/3/1 348/4/1 

v 2.856 1.73259e-14 -2.88765e-15
v 2.808 1.73259e-14 -2.88765e-15
f 346/5/2 345/6/2 349/1/2 350/2/2 

v 2.856 2.4 -2.88765e-15
f 349/2/3 345/7/3 348/8/3 351/3/3 

v 2.808 2.4 -2.88765e-15
f 348/9/4 347/5/4 352/2/4 351/10/4 

f 346/11/5 350/2/5 352/3/5 347/12/5 

f 350/2/6 349/10/6 351/13/6 352/3/6 

g Mesh45 Component_199_44 Model

v 0.204 1.73259e-14 -0.022
v 0.156 1.73259e-14 -0.022
v 0.156 2.4 -0.022
v 0.204 2.4 -0.022
f 353/1/1 354/2/1 355/3/1 356/4/1 

v 0.204 1.73259e-14 -1.44382e-15
v 0.156 1.73259e-14 -1.44382e-15
f 354/5/2 353/6/2 357/1/2 358/2/2 

v 0.204 2.4 -1.44382e-15
f 357/2/3 353/7/3 356/8/3 359/3/3 

v 0.156 2.4 -1.44382e-15
f 356/9/4 355/5/4 360/2/4 359/10/4 

f 354/11/5 358/2/5 360/3/5 355/12/5 

f 358/2/6 357/10/6 359/13/6 360/3/6 

g Mesh46 Component_199_45 Model

v 1.156 1.73259e-14 -0.022
v 1.108 1.73259e-14 -0.022
v 1.108 2.4 -0.022
v 1.156 2.4 -0.022
f 361/1/1 362/2/1 363/3/1 364/4/1 

v 1.156 1.73259e-14 -3.79003e-15
v 1.108 1.73259e-14 -3.79003e-15
f 362/5/2 361/6/2 365/1/2 366/2/2 

v 1.156 2.4 -3.79003e-15
f 365/2/3 361/7/3 364/8/3 367/3/3 

v 1.108 2.4 -3.79003e-15
f 364/9/4 363/5/4 368/2/4 367/10/4 

f 362/11/5 366/2/5 368/3/5 363/12/5 

f 366/2/6 365/10/6 367/13/6 368/3/6 

g Mesh47 Component_199_46 Model

v 1.7 1.73259e-14 -0.022
v 1.652 1.73259e-14 -0.022
v 1.652 2.4 -0.022
v 1.7 2.4 -0.022
f 369/1/1 370/2/1 371/3/1 372/4/1 

v 1.7 1.73259e-14 -9.20437e-15
v 1.652 1.73259e-14 -9.20437e-15
f 370/5/2 369/6/2 373/1/2 374/2/2 

v 1.7 2.4 -9.20437e-15
f 373/2/3 369/7/3 372/8/3 375/3/3 

v 1.652 2.4 -9.20437e-15
f 372/9/4 371/5/4 376/2/4 375/10/4 

f 370/11/5 374/2/5 376/3/5 371/12/5 

f 374/2/6 373/10/6 375/13/6 376/3/6 

g Mesh48 Component_199_47 Model

v 0.408 1.73259e-14 -0.022
v 0.36 1.73259e-14 -0.022
v 0.36 2.4 -0.022
v 0.408 2.4 -0.022
f 377/1/1 378/2/1 379/3/1 380/4/1 

v 0.408 1.73259e-14 -1.26334e-15
v 0.36 1.73259e-14 -1.26334e-15
f 378/5/2 377/6/2 381/1/2 382/2/2 

v 0.408 2.4 -1.26334e-15
f 381/2/3 377/7/3 380/8/3 383/3/3 

v 0.36 2.4 -1.26334e-15
f 380/9/4 379/5/4 384/2/4 383/10/4 

f 378/11/5 382/2/5 384/3/5 379/12/5 

f 382/2/6 381/10/6 383/13/6 384/3/6 

